# xmcd
#
# Track frame offsets:
#	150
#	14060
#	35900
#	60767
#	81758
#	104338
#	125480
#	144377
#	163668
#	191322
#	206131
#	223401
#	242372
#	260068
#	284251
#	305411
#	325384
#
# Disc length: 4618 seconds
#
# Revision: 1
# Processed by: cddbd v1.4PL0 Copyright (c) Steve Scherf et al.
# Submitted via: audiograbber 1.81.02
#
DISCID=00120811
DTITLE=Chris Rea - Stony Road
DYEAR=2002
DGENRE=
TTITLE0=Changing Times
TTITLE1=Easy Rider
TTITLE2=Stony Road
TTITLE3=Dancing the Blues Away
TTITLE4=Burning Feet
TTITLE5=Mississippi
TTITLE6=Slow Dance
TTITLE7=When the Good Lord Talked to Jesus
TTITLE8=Heading for the City
TTITLE9=So Lonely
TTITLE10=Someday My Peace Will Come
TTITLE11=The Hustler
TTITLE12=Give that Girl a Diamond
TTITLE13=And You My Love
TTITLE14=Auberge
TTITLE15=Josephine
TTITLE16=The Blue Cafe
EXTD=distribution: Edel Records\nmade in Germany
EXTT0=
EXTT1=
EXTT2=
EXTT3=
EXTT4=
EXTT5=
EXTT6=
EXTT7=
EXTT8=
EXTT9=
EXTT10=
EXTT11=
EXTT12=
EXTT13=
EXTT14=
EXTT15=
EXTT16=
PLAYORDER=
